<svg width="276" height="292" viewBox="0 0 276 292" fill="none" xmlns="http://www.w3.org/2000/svg">
<path opacity="0.56" d="M255.392 252.354C239.819 256.89 227.005 239.535 214.684 233.421C201.476 226.913 189.648 223.758 178.313 223.659C155.839 223.561 140.167 241.31 127.156 257.383C112.667 275.231 96.9948 291.402 72.1559 291.994C66.7347 292.092 59.145 291.106 54.2166 285.584C45.5427 275.921 48.9926 262.412 51.6539 251.269C59.7364 216.658 66.9318 162.622 24.5479 147.24C18.0425 144.873 11.3399 142.408 7.20009 137.083C-13.1047 110.755 13.607 91.4285 36.9674 83.047C60.3278 74.6655 86.5467 69.5379 108.133 55.8317C131.099 41.2379 141.153 10.9658 167.865 1.59824C175.553 -1.06413 182.945 -0.373882 188.169 3.47176C194.773 8.30347 197.928 16.8822 199.702 22.7986C207.587 49.0278 186.1 74.9613 195.562 100.993C201.673 117.855 217.542 129.392 232.229 138.562C256.575 153.649 275.5 170.116 275.993 201.177C276.19 216.56 272.346 231.745 264.953 244.071C262.588 248.015 260.025 250.579 256.969 251.762C256.477 251.959 255.885 252.157 255.392 252.354Z" fill="#6AA3E7"/>
</svg>
