<svg width="141" height="48" fill="none" xmlns="http://www.w3.org/2000/svg"><g clip-path="url(#a)"><mask id="b" style="mask-type:alpha" maskUnits="userSpaceOnUse" x="2" y="2" width="47" height="44"><path d="M46.78 28H29.77v16h17.01V28zM13.822 4l9.57 16H4.252l9.569-16zm24.454 16c2.256 0 4.42-.843 6.014-2.343 1.596-1.5 2.492-3.535 2.492-5.657s-.896-4.157-2.492-5.657C42.694 4.843 40.531 4 38.275 4c-2.256 0-4.42.843-6.014 2.343-1.595 1.5-2.492 3.535-2.492 5.657s.897 4.157 2.492 5.657S36.019 20 38.275 20z" fill="#fff" stroke="#fff" stroke-width="4" stroke-linejoin="round"/><path d="m4.253 28 17.01 16m0-16L4.254 44" stroke="#fff" stroke-width="4" stroke-linecap="round" stroke-linejoin="round"/></mask><g mask="url(#b)"><path d="M0 0h51.034v48H0V0z" fill="#fff"/></g><g clip-path="url(#c)"><mask id="d" style="mask-type:alpha" maskUnits="userSpaceOnUse" x="2" y="2" width="47" height="44"><path d="M46.78 28H29.77v16h17.01V28zM13.823 4l9.569 16H4.252l9.569-16zm24.453 16c2.256 0 4.42-.843 6.015-2.343 1.595-1.5 2.49-3.535 2.49-5.657s-.895-4.157-2.49-5.657C42.695 4.843 40.53 4 38.275 4c-2.255 0-4.419.843-6.014 2.343-1.595 1.5-2.491 3.535-2.491 5.657s.896 4.157 2.49 5.657c1.596 1.5 3.76 2.343 6.015 2.343z" fill="#fff" stroke="#fff" stroke-width="4" stroke-linejoin="round"/></mask><g mask="url(#d)"><path d="M0 0h51.034v48H0V0z" fill="#0897AB"/></g></g></g><path d="M62.746 25c-.256 0-.464-.075-.624-.224a.835.835 0 0 1-.224-.592v-9.568c0-.235.08-.427.24-.576.16-.16.352-.24.576-.24h5.408a.78.78 0 0 1 .576.224c.16.15.24.336.24.56a.7.7 0 0 1-.24.528.78.78 0 0 1-.576.224H63.45l.112-.16v3.568l-.096-.192h3.936a.78.78 0 0 1 .576.224c.16.15.24.336.24.56a.7.7 0 0 1-.24.528.78.78 0 0 1-.576.224h-3.968l.128-.128v4.224c0 .235-.08.432-.24.592a.815.815 0 0 1-.576.224zm9.128 0c-.256 0-.48-.075-.672-.224a.742.742 0 0 1-.288-.592v-9.568c0-.235.08-.427.24-.576.16-.16.352-.24.576-.24h4.512c.576 0 1.104.144 1.584.432.48.277.864.667 1.152 1.168.299.49.448 1.056.448 1.696 0 .427-.085.837-.256 1.232-.17.384-.4.725-.688 1.024a2.86 2.86 0 0 1-.976.672l-.176-.304c.33.117.619.288.864.512.245.213.437.47.576.768.15.288.23.619.24.992l.08.832c.032.213.075.39.128.528.053.139.15.245.288.32.192.107.31.267.352.48a.627.627 0 0 1-.128.576.685.685 0 0 1-.368.256 1.17 1.17 0 0 1-.432.016 1.622 1.622 0 0 1-.384-.128 2.751 2.751 0 0 1-.528-.448c-.17-.203-.31-.48-.416-.832-.107-.352-.16-.816-.16-1.392 0-.267-.043-.496-.128-.688a1.192 1.192 0 0 0-.352-.464 1.31 1.31 0 0 0-.528-.272 2.223 2.223 0 0 0-.672-.096H72.37l.224-.32v3.824a.918.918 0 0 1-.192.592.659.659 0 0 1-.528.224zm.512-5.712h3.824c.245-.01.48-.107.704-.288.235-.192.421-.448.56-.768.15-.32.224-.683.224-1.088 0-.512-.155-.939-.464-1.28-.299-.352-.656-.528-1.072-.528h-3.744l.176-.416v4.704l-.208-.336zM82.62 13.8h5.535a.76.76 0 0 1 .56.224c.16.15.24.336.24.56 0 .224-.08.405-.24.544a.791.791 0 0 1-.56.208h-4.832l.16-.272v3.584l-.143-.16h4.096a.76.76 0 0 1 .56.224c.16.15.24.341.24.576 0 .224-.08.405-.24.544a.791.791 0 0 1-.56.208h-4.064l.111-.144v3.696l-.111-.128h4.783c.224 0 .411.08.56.24a.7.7 0 0 1 .24.528c0 .224-.08.41-.24.56a.791.791 0 0 1-.56.208h-5.535a.815.815 0 0 1-.576-.224.804.804 0 0 1-.24-.592v-9.568c0-.235.08-.427.24-.576.16-.16.352-.24.576-.24zm9.14 0h5.536a.76.76 0 0 1 .56.224c.16.15.24.336.24.56 0 .224-.08.405-.24.544a.791.791 0 0 1-.56.208h-4.832l.16-.272v3.584l-.144-.16h4.096a.76.76 0 0 1 .56.224c.16.15.24.341.24.576 0 .224-.08.405-.24.544a.791.791 0 0 1-.56.208h-4.064l.112-.144v3.696l-.112-.128h4.784c.224 0 .41.08.56.24a.7.7 0 0 1 .24.528c0 .224-.08.41-.24.56a.791.791 0 0 1-.56.208h-5.536a.815.815 0 0 1-.576-.224.804.804 0 0 1-.24-.592v-9.568c0-.235.08-.427.24-.576.16-.16.352-.24.576-.24z" fill="#0897AB"/><path d="M91.536 41.16c-.811 0-1.568-.15-2.272-.448a5.939 5.939 0 0 1-1.856-1.232 6.085 6.085 0 0 1-1.264-1.84 5.6 5.6 0 0 1-.448-2.24c0-.8.149-1.547.448-2.24.309-.693.73-1.301 1.264-1.824a5.756 5.756 0 0 1 4.128-1.696c.501 0 .986.053 1.456.16.469.107.901.267 1.296.48.16.085.277.203.352.352a.813.813 0 0 1 .128.432c0 .256-.086.485-.256.688a.82.82 0 0 1-.656.304c-.086 0-.176-.01-.272-.032a1.245 1.245 0 0 1-.256-.096 4.38 4.38 0 0 0-1.792-.368c-.694 0-1.328.176-1.904.528a3.867 3.867 0 0 0-1.36 1.392 3.787 3.787 0 0 0-.496 1.92c0 .693.165 1.333.496 1.92a4 4 0 0 0 1.36 1.408c.576.341 1.21.512 1.904.512.32 0 .672-.032 1.056-.096s.698-.15.944-.256l-.144.48v-2.736l.272.24h-1.776a.987.987 0 0 1-.704-.272.932.932 0 0 1-.272-.688c0-.277.09-.507.272-.688a.987.987 0 0 1 .704-.272h2.624c.277 0 .506.096.688.288.181.181.272.41.272.688v3.392c0 .213-.054.39-.16.528-.096.139-.208.25-.336.336-.491.299-1.03.539-1.616.72a6.387 6.387 0 0 1-1.824.256zm9.972-8.848-3.456 8.128a1.012 1.012 0 0 1-.352.48.834.834 0 0 1-.496.16c-.288 0-.501-.08-.64-.24a.872.872 0 0 1-.208-.592c0-.096.016-.197.048-.304l3.984-9.568a1.07 1.07 0 0 1 .384-.496.87.87 0 0 1 .576-.144c.192 0 .368.059.528.176a.887.887 0 0 1 .368.464l3.936 9.376c.054.139.08.267.08.384 0 .288-.096.517-.288.688a.866.866 0 0 1-1.136.08 1.183 1.183 0 0 1-.352-.48l-3.44-8.016.464-.096zm-2.96 6.176.88-1.84h4.32l.304 1.84h-5.504zm10.075-8.704c.149 0 .304.043.464.128a.856.856 0 0 1 .384.304l3.888 5.984-.8-.032 3.984-5.952c.203-.288.464-.432.784-.432.256 0 .485.09.688.272a.9.9 0 0 1 .304.704v9.264a.989.989 0 0 1-.272.704c-.181.181-.421.272-.72.272s-.544-.09-.736-.272a.989.989 0 0 1-.272-.704v-7.536l.624.144-3.264 4.976a1.31 1.31 0 0 1-.368.304.713.713 0 0 1-.432.112.749.749 0 0 1-.432-.112 1.387 1.387 0 0 1-.352-.304l-3.056-4.832.416-.848v8.096c0 .277-.085.512-.256.704a.881.881 0 0 1-.672.272.861.861 0 0 1-.656-.272 1.02 1.02 0 0 1-.256-.704V30.76c0-.267.096-.496.288-.688.203-.192.443-.288.72-.288zm13.077.016h5.36c.278 0 .507.09.688.272.192.17.288.395.288.672a.838.838 0 0 1-.288.656 1 1 0 0 1-.688.24h-4.48l.144-.272v3.12l-.128-.128h3.744c.278 0 .507.09.688.272.192.17.288.395.288.672a.838.838 0 0 1-.288.656 1 1 0 0 1-.688.24h-3.696l.08-.128v3.232l-.128-.144h4.464c.278 0 .507.096.688.288a.853.853 0 0 1 .288.64.838.838 0 0 1-.288.656.962.962 0 0 1-.688.256h-5.36a.988.988 0 0 1-.704-.272.989.989 0 0 1-.272-.704v-9.248a.958.958 0 0 1 .976-.976zm11.781 11.36c-.747 0-1.419-.09-2.016-.272-.598-.192-1.168-.523-1.712-.992a1.249 1.249 0 0 1-.32-.4.99.99 0 0 1-.112-.448c0-.245.085-.459.256-.64a.886.886 0 0 1 .672-.288c.202 0 .384.064.544.192.405.33.805.581 1.2.752.405.17.901.256 1.488.256.394 0 .757-.059 1.088-.176.33-.128.597-.293.8-.496.202-.213.304-.453.304-.72 0-.32-.096-.592-.288-.816-.192-.224-.486-.41-.88-.56-.395-.16-.896-.283-1.504-.368a7.013 7.013 0 0 1-1.52-.384 3.84 3.84 0 0 1-1.104-.672 2.796 2.796 0 0 1-.656-.96 3.32 3.32 0 0 1-.224-1.248c0-.693.176-1.285.528-1.776.362-.49.848-.864 1.456-1.12a5.145 5.145 0 0 1 2.016-.384c.693 0 1.333.107 1.92.32.597.203 1.082.464 1.456.784.309.245.464.528.464.848a.913.913 0 0 1-.272.64.854.854 0 0 1-.64.288.702.702 0 0 1-.432-.144c-.171-.15-.4-.288-.688-.416a5.159 5.159 0 0 0-.912-.336 3.13 3.13 0 0 0-.896-.144c-.459 0-.848.059-1.168.176-.31.117-.544.277-.704.48-.16.203-.24.437-.24.704 0 .32.09.587.272.8.192.203.464.368.816.496.352.117.773.224 1.264.32.64.117 1.2.256 1.68.416.49.16.896.368 1.216.624.32.245.56.56.72.944.16.373.24.832.24 1.376 0 .693-.192 1.29-.576 1.792a3.681 3.681 0 0 1-1.52 1.152 5.04 5.04 0 0 1-2.016.4z" fill="#fff"/><defs><clipPath id="a"><path fill="#fff" d="M0 0h51.034v48H0z"/></clipPath><clipPath id="c"><path fill="#fff" transform="translate(26.58)" d="M0 0h24.454v48H0z"/></clipPath></defs></svg>