<svg width="850" height="597" fill="none" xmlns="http://www.w3.org/2000/svg"><path d="m107 57-2 28 115.5-24-4-25c-3.333-3-28.5-6.462-49.5-3.5-31.2 4.4-53 18.167-60 24.5z" fill="url(#a)"/><path d="m107 57-2 28 115.5-24-4-25c-3.333-3-28.5-6.462-49.5-3.5-31.2 4.4-53 18.167-60 24.5z" fill="url(#b)"/><g filter="url(#c)"><path d="M106.892 58.513 107 57c7-6.333 28.8-20.1 60-24.5 21-2.962 46.167.5 49.5 3.5l.163 1.02C200.82 38.59 182.691 41.198 166.5 44c-18.161 3.143-42.177 9.458-59.608 14.513z" fill="url(#d)"/></g><path d="m743.5 57 2 28L630 61l4-25c3.333-3 28.5-6.462 49.5-3.5 31.2 4.4 53 18.167 60 24.5z" fill="url(#e)"/><path d="m743.5 57 2 28L630 61l4-25c3.333-3 28.5-6.462 49.5-3.5 31.2 4.4 53 18.167 60 24.5z" fill="url(#f)"/><g filter="url(#g)"><path d="M743.608 58.513 743.5 57c-7-6.333-28.8-20.1-60-24.5-21-2.962-46.167.5-49.5 3.5l-.163 1.02C649.68 38.59 667.809 41.198 684 44c18.161 3.143 42.177 9.458 59.608 14.513z" fill="url(#h)"/></g><path d="M658.791 428.033c18.976 27.157 35.473 67.867 54.195 114.066 4.243 10.47 7.503 18.935 10.105 25.692 7.192 18.673 9.363 24.311 13.381 23.209l.658-.104c-2.022 1.988-5.559 2.713-8.541.104-5.321-4.656-11.5-14.5-27-52-6.449-15.604-12.998-33.248-19.664-51.212l-.001-.002-.002-.004c-7.549-20.341-15.25-41.09-23.131-59.749z" fill="url(#i)"/><path d="M111.713 590.64 114 591c3.98 0 5.618-4.119 14.79-27.193 2.349-5.909 5.192-13.062 8.696-21.708 17.512-43.215 33.078-81.627 50.547-108.637-7.094 17.212-14.043 35.936-20.868 54.326-6.667 17.963-13.216 35.608-19.665 51.212-15.5 37.5-21.679 47.344-27 52-3.107 2.718-6.816 1.818-8.787-.36z" fill="url(#j)"/><g filter="url(#k)"><path d="M168.08 68.217C75.087 92.631 73.992 485.61 60 582.5l54 8.5c5 0 6.303-6.5 23.486-48.901C171.331 458.579 197.906 393 245 393c18 0 26 5 46 5h269c20 0 27.472-5 45.472-5 47.093 0 73.669 65.579 107.514 149.099C728.953 581.5 731 592.5 736.472 591l54-8.5C776.48 485.61 775.385 92.631 682.391 68.217c-84.088-22.076-170.35-27.524-257.155-26.2-86.805-1.324-173.068 4.124-257.156 26.2z" fill="url(#l)"/></g><path d="M97.254 213.218c14.554-76.375 36.389-135.96 70.826-145 84.088-22.077 170.351-27.525 257.156-26.201 86.805-1.324 173.067 4.124 257.155 26.2 35.515 9.324 57.626 72.402 72.171 152.215-14.716-60.082-35.437-104.369-65.532-112.06C602.694 86.308 514.126 80.862 425 82.186c-89.126-1.324-177.694 4.122-264.03 26.186-28.877 7.379-49.124 48.454-63.716 104.846z" fill="#E4E4E9"/><circle cx="81.5" cy="81.5" r="81.5" transform="matrix(-1 0 0 1 642 235)" fill="url(#m)"/><circle cx="65" cy="65" r="65" transform="matrix(-1 0 0 1 629 245)" fill="url(#n)"/><circle cx="55.5" cy="55.5" r="54.5" transform="matrix(-1 0 0 1 619 254)" fill="#3D3F44" stroke="#21242C" stroke-width="2"/><circle cx="49.5" cy="49.5" r="48.5" transform="matrix(-1 0 0 1 613 260)" fill="#5B5F67" stroke="#21242C" stroke-width="2"/><circle cx="30.5" cy="30.5" r="30.5" transform="matrix(-1 0 0 1 594 279)" fill="#4B4E53"/><g opacity=".6" filter="url(#o)" transform="matrix(-1 0 0 1 371 235)"><circle cx="81.5" cy="81.5" r="81.5" fill="url(#p)"/><circle cx="81.5" cy="81.5" r="81.5" fill="url(#q)"/></g><g opacity=".7" filter="url(#r)"><circle cx="65" cy="65" r="65" transform="matrix(-1 0 0 1 358 245)" fill="url(#s)"/></g><g filter="url(#t)"><circle cx="55.5" cy="55.5" r="55.5" transform="matrix(-1 0 0 1 348 254)" fill="#3D3F44"/></g><circle cx="55.5" cy="55.5" r="55" transform="matrix(-1 0 0 1 348 254)" stroke="#21242C"/><g filter="url(#u)"><circle cx="49.5" cy="49.5" r="49.5" transform="matrix(-1 0 0 1 342 260)" fill="url(#v)"/></g><circle cx="49.5" cy="49.5" r="49" transform="matrix(-1 0 0 1 342 260)" stroke="#21242C"/><g filter="url(#w)"><circle cx="30.5" cy="30.5" r="30.5" transform="matrix(-1 0 0 1 323 279)" fill="url(#x)"/></g><g opacity=".6" filter="url(#y)" transform="matrix(-1 0 0 1 641 235)"><circle cx="81.5" cy="81.5" r="81.5" fill="url(#z)"/><circle cx="81.5" cy="81.5" r="81.5" fill="url(#A)"/></g><g opacity=".7" filter="url(#B)"><circle cx="65" cy="65" r="65" transform="matrix(-1 0 0 1 628 245)" fill="url(#C)"/></g><g filter="url(#D)"><circle cx="55.5" cy="55.5" r="55.5" transform="matrix(-1 0 0 1 618 254)" fill="#3D3F44"/></g><circle cx="55.5" cy="55.5" r="55" transform="matrix(-1 0 0 1 618 254)" stroke="#21242C"/><g filter="url(#E)"><circle cx="49.5" cy="49.5" r="49.5" transform="matrix(-1 0 0 1 612 260)" fill="url(#F)"/></g><circle cx="49.5" cy="49.5" r="49" transform="matrix(-1 0 0 1 612 260)" stroke="#21242C"/><g filter="url(#G)"><circle cx="30.5" cy="30.5" r="30.5" transform="matrix(-1 0 0 1 593 279)" fill="url(#H)"/></g><g filter="url(#I)" fill="#000" fill-opacity=".02"><path d="M198.163 64.283c-22.033 3.353-71.964 15.81-83.459 19.642-33.05 62.761-109.207 248.17-81.905 408.186 9.563 56.054 14.965 73.362 35.082 72.883 11.975 0 17.435.13 29.697-37.43 12.83-42.454 43.573-122.831 80.468-190.679 24.172-44.448 53.567-81.606 73.284-105.879 18.68-22.996 14.369-45.992 5.269-85.757-1.846-8.062-3.42-15.556-4.873-22.47-9.423-44.851-13.722-65.311-53.563-58.496zM650.837 64.283c22.033 3.353 71.963 15.81 83.459 19.642 33.049 62.761 109.207 248.17 81.905 408.186-9.563 56.054-14.965 73.362-35.082 72.883-11.975 0-17.435.13-29.697-37.43-12.83-42.454-43.573-122.831-80.468-190.679-24.172-44.448-53.567-81.606-73.284-105.879-18.68-22.996-14.369-45.992-5.269-85.757 1.846-8.062 3.42-15.556 4.873-22.47 9.423-44.851 13.722-65.311 53.563-58.496z"/></g><g filter="url(#J)"><path d="M200.553 53c-23 3.5-96 16.5-108 20.5-34.5 65.5-114 259-85.5 426 9.984 58.5 36.5 87 57.5 86.5 12.5 0 18.2-10.3 31-49.5 13.393-44.307 45.485-128.191 84-199 25.233-46.389 55.918-85.168 76.5-110.5 19.5-24 15-48 5.5-89.5-1.926-8.414-3.57-16.235-5.086-23.451C246.63 67.24 242.142 45.888 200.553 53z" fill="url(#K)"/><path d="M650.128 53c23 3.5 96 16.5 108 20.5 34.5 65.5 114 259 85.5 426-9.983 58.5-36.5 87-57.5 86.5-12.5 0-18.2-10.3-31-49.5-13.393-44.307-45.485-128.191-84-199-25.232-46.389-55.917-85.168-76.5-110.5-19.5-24-15-48-5.5-89.5 1.926-8.414 3.57-16.235 5.086-23.451C604.052 67.24 608.539 45.888 650.128 53z" fill="url(#L)"/></g><g filter="url(#M)"><path d="M267.24 51.5c-12 2.286-22.5 6.5-16.5 34s16.5 79.998 20 97.499c5.4 27 24.5 50.001 62.5 50.001h184.666c38 0 57.1-23 62.5-50 3.5-17.501 14-70 20-97.5s-4.5-31.714-16.5-34c-51.148-9.742-106.074-9.532-158.166-8-52.83 1.554-106.267-1.95-158.5 8z" fill="url(#N)"/><path d="M267.24 51.5c-12 2.286-22.5 6.5-16.5 34s16.5 79.998 20 97.499c5.4 27 24.5 50.001 62.5 50.001h184.666c38 0 57.1-23 62.5-50 3.5-17.501 14-70 20-97.5s-4.5-31.714-16.5-34c-51.148-9.742-106.074-9.532-158.166-8-52.83 1.554-106.267-1.95-158.5 8z" fill="url(#O)"/><path d="M267.24 51.5c-12 2.286-22.5 6.5-16.5 34s16.5 79.998 20 97.499c5.4 27 24.5 50.001 62.5 50.001h184.666c38 0 57.1-23 62.5-50 3.5-17.501 14-70 20-97.5s-4.5-31.714-16.5-34c-51.148-9.742-106.074-9.532-158.166-8-52.83 1.554-106.267-1.95-158.5 8z" fill="url(#P)"/></g><g filter="url(#Q)"><path d="M267.232 60.483c-11.995 1.946-22.49 5.533-16.493 28.945 5.998 23.411 16.493 68.105 19.992 83.004 5.398 22.987 24.49 42.568 62.474 42.568h184.59c37.984 0 57.076-19.581 62.474-42.567 3.499-14.899 13.994-59.594 19.992-83.005 5.997-23.412-4.498-27-16.493-28.945-51.127-8.294-106.031-8.115-158.101-6.811-52.808 1.323-106.223-1.66-158.435 6.81z" fill="#2A6AFD" fill-opacity=".1"/></g><path d="M249.097 74.537c-1.143-17.769 7.96-21.097 18.143-23.037 37.962-7.23 76.56-7.356 115.098-7.481 14.488-.047 28.968-.094 43.402-.519 52.092-1.532 107.018-1.742 158.166 8 10.816 2.06 20.413 5.687 17.808 26.52-.524-13.766-8.916-16.643-18.206-18.383-51.127-9.574-106.031-9.367-158.101-7.861-14.428.417-28.902.463-43.384.51-38.522.122-77.104.245-115.051 7.351-8.448 1.582-16.153 4.105-17.875 14.9z" fill="#BEC3D2"/><g filter="url(#R)"><path d="M425.509 38c-48 0-118 3-149.5 7.5-24.732 3.533-19.363 27.492-16.28 41.248 7.354 32.812 10.82 66.527 20.78 98.752 8.5 27.5 22.5 35 57.5 35h175c35 0 49-7.5 57.5-35 9.96-32.225 13.427-65.94 20.78-98.752 3.083-13.756 8.452-37.715-16.28-41.248-31.5-4.5-101.5-7.5-149.5-7.5z" fill="url(#S)"/></g><ellipse cx="262.419" cy="122.419" rx="96.711" ry="99.534" transform="rotate(-15 262.419 122.419)" fill="url(#T)" fill-opacity=".07"/><ellipse cx="96.711" cy="99.534" rx="96.711" ry="99.534" transform="scale(-1 1) rotate(-15 -168.05 2745.652)" fill="url(#U)" fill-opacity=".07"/><g opacity=".85"><g filter="url(#V)"><path d="M415.328 302v-25c3 .667 10.567 3.108 17 5 9.038 2.658 15.5 13.5 8.5 22.5 8-1 18 4 14 10.5l-27 11c-2.667-1.333-13.5-5.5-13.5-5.5-13.5 1.5-29-7.5-14.5-13l15.5-5.5z" fill="#21242C"/></g><g filter="url(#W)"><path d="M430.693 291.214v13.042c5.492 2.652 9.813-.003 9.813-7.002 0-7.179-2.529-10.367-9.987-12.931-2.935-.985-8.391-2.628-12.139-3.323v38.934l8.812 2.796v-32.655c0-1.528.68-2.554 1.781-2.195 1.439.4 1.72 1.807 1.72 3.334z" fill="url(#X)"/><path d="M407.036 314.726c1.306.427 3.668.307 5.277-.271l4.358-1.582v4.581l-.023.004a373.9 373.9 0 0 1-.843.139c-4.362.712-9.01.416-13.585-1.094-4.267-1.2-4.979-3.7-3.033-5.144 1.8-1.333 4.855-2.332 4.855-2.332l12.629-4.489v5.116l-9.088 3.254c-1.608.575-1.851 1.394-.547 1.818z" fill="url(#Y)"/><path d="M451.758 312.938c-1.058 1.333-3.643 2.286-3.643 2.286l-19.255 6.915v-5.098l14.17-5.053c1.608-.575 1.856-1.389.55-1.816-1.306-.427-3.667-.305-5.277.27l-9.443 3.328v-5.291l.542-.184s2.732-.968 6.565-1.395c3.837-.416 8.536.058 12.224 1.458 4.156 1.314 4.623 3.25 3.567 4.58z" fill="url(#Z)"/></g></g><g opacity=".9" filter="url(#aa)" fill="#21242C"><path d="M400 246.5a4.5 4.5 0 1 1-9 0 4.5 4.5 0 0 1 9 0zM415 246.5a4.5 4.5 0 1 1-9 0 4.5 4.5 0 0 1 9 0zM403.5 264a4.5 4.5 0 1 0 0-9 4.5 4.5 0 0 0 0 9zM430 246.5a4.5 4.5 0 1 1-9 0 4.5 4.5 0 0 1 9 0zM418.5 264a4.5 4.5 0 1 0 0-9 4.5 4.5 0 0 0 0 9zM445 246.5a4.5 4.5 0 1 1-9 0 4.5 4.5 0 0 1 9 0zM433.5 264a4.5 4.5 0 1 0 0-9 4.5 4.5 0 0 0 0 9zM460 246.5a4.5 4.5 0 1 1-9 0 4.5 4.5 0 0 1 9 0zM448.5 264a4.5 4.5 0 1 0 0-9 4.5 4.5 0 0 0 0 9z"/></g><g opacity=".71" filter="url(#ab)"><rect x="403" y="349" width="44" height="11" rx="5.5" fill="url(#ac)"/><rect x="404" y="350" width="42" height="9" rx="4.5" stroke="#21242C" stroke-width="2"/></g><rect opacity=".86" x="418" y="389" width="14" height="3" rx="1.5" fill="#21242C" fill-opacity=".65"/><path d="M428.792 377.637H430c0 1.244-.425 2.339-1.275 3.284-.828.922-1.835 1.475-3.02 1.659V385h-1.41v-2.42c-1.185-.184-2.203-.737-3.053-1.659-.828-.945-1.242-2.04-1.242-3.284h1.208c0 1.083.369 1.982 1.107 2.696A3.86 3.86 0 0 0 425 381.37c1.029 0 1.913-.345 2.651-1.037.761-.714 1.141-1.613 1.141-2.696zm-2.282 1.556c-.425.437-.928.656-1.51.656s-1.085-.219-1.51-.656a2.16 2.16 0 0 1-.638-1.556v-4.425c0-.599.213-1.117.638-1.555.425-.438.928-.657 1.51-.657s1.085.219 1.51.657c.425.438.638.956.638 1.555v4.425a2.16 2.16 0 0 1-.638 1.556z" fill="#CACDDB" fill-opacity=".2"/><g filter="url(#ad)"><path d="M135.027 133.5c.5 8 1.334 21 2 28 .238 2.5 3.9 6.4 7.5 10 4.5 4.5 10 10 12 11.5 2.925 2.193 6.251 2.193 9.176 0 2-1.5 7.5-7 12-11.5 3.6-3.6 7.262-7.5 7.5-10 .667-7 1.5-20 2-28 .775-12.405-15.176-14-26.176-14-11 0-26.77 1.67-26 14z" fill="url(#ae)"/><path d="M135.027 133.5c.5 8 1.334 21 2 28 .238 2.5 3.9 6.4 7.5 10 4.5 4.5 10 10 12 11.5 2.925 2.193 6.251 2.193 9.176 0 2-1.5 7.5-7 12-11.5 3.6-3.6 7.262-7.5 7.5-10 .667-7 1.5-20 2-28 .775-12.405-15.176-14-26.176-14-11 0-26.77 1.67-26 14z" stroke="#72767E" stroke-width="2"/></g><path d="M139.023 136.035c.421 6.877 1.123 18.052 1.685 24.069.2 2.149 3.285 5.502 6.318 8.596 3.791 3.869 8.424 8.596 10.109 9.886 2.464 1.885 5.266 1.885 7.73 0 1.685-1.29 6.318-6.017 10.109-9.886 3.033-3.094 6.118-6.447 6.318-8.596.562-6.017 1.264-17.192 1.685-24.069.653-10.664-12.784-12.035-22.051-12.035-9.267 0-22.552 1.435-21.903 12.035z" fill="url(#af)"/><path d="M153 143h15.5l-8-7.5-7.5 7.5z" fill="#AAAEB7"/><g filter="url(#ag)"><path d="M220.688 166.985c-8 .5-21.001 1.333-28.001 2-2.5.238-6.4 3.9-10 7.5-4.499 4.5-10 10-11.5 12-2.193 2.924-2.193 6.251 0 9.175 1.5 2 7 7.5 11.5 12 3.6 3.6 7.5 7.262 10 7.5 7 .667 20 1.5 28 2 12.406.776 14-15.175 14-26.175s-1.669-26.771-13.999-26z" fill="url(#ah)"/><path d="M220.688 166.985c-8 .5-21.001 1.333-28.001 2-2.5.238-6.4 3.9-10 7.5-4.499 4.5-10 10-11.5 12-2.193 2.924-2.193 6.251 0 9.175 1.5 2 7 7.5 11.5 12 3.6 3.6 7.5 7.262 10 7.5 7 .667 20 1.5 28 2 12.406.776 14-15.175 14-26.175s-1.669-26.771-13.999-26z" stroke="#72767E" stroke-width="2"/></g><path d="M218.153 170.98c-6.877.422-18.052 1.124-24.07 1.685-2.149.201-5.501 3.286-8.596 6.318-3.868 3.791-8.596 8.425-9.885 10.11-1.886 2.463-1.886 5.266 0 7.729 1.289 1.685 6.017 6.319 9.885 10.109 3.095 3.033 6.447 6.118 8.596 6.319 6.018.561 17.193 1.263 24.07 1.685 10.664.653 12.034-12.785 12.034-22.052 0-9.266-1.435-22.552-12.034-21.903z" fill="url(#ai)"/><path d="m211.188 184.957-.001 15.5 7.5-8-7.499-7.5z" fill="#AAAEB7"/><g filter="url(#aj)"><path d="M135.027 252.645c.5-8 1.334-21 2-28 .238-2.5 3.9-6.4 7.5-10 4.5-4.5 10-10 12-11.5 2.925-2.193 6.251-2.193 9.176 0 2 1.5 7.5 7 12 11.5 3.6 3.6 7.262 7.5 7.5 10 .667 7 1.5 20 2 28 .775 12.405-15.176 14-26.176 14-11 0-26.77-1.67-26-14z" fill="url(#ak)"/><path d="M135.027 252.645c.5-8 1.334-21 2-28 .238-2.5 3.9-6.4 7.5-10 4.5-4.5 10-10 12-11.5 2.925-2.193 6.251-2.193 9.176 0 2 1.5 7.5 7 12 11.5 3.6 3.6 7.262 7.5 7.5 10 .667 7 1.5 20 2 28 .775 12.405-15.176 14-26.176 14-11 0-26.77-1.67-26-14z" stroke="#72767E" stroke-width="2"/></g><path d="M139.023 250.11c.421-6.877 1.123-18.052 1.685-24.069.2-2.149 3.285-5.502 6.318-8.596 3.791-3.868 8.424-8.596 10.109-9.886 2.464-1.885 5.266-1.885 7.73 0 1.685 1.29 6.318 6.018 10.109 9.886 3.033 3.094 6.118 6.447 6.318 8.596.562 6.017 1.264 17.192 1.685 24.069.653 10.664-12.784 12.035-22.051 12.035-9.267 0-22.552-1.435-21.903-12.035z" fill="url(#al)"/><path d="M153 243.145h15.5l-8 7.5-7.5-7.5z" fill="#AAAEB7"/><g filter="url(#am)"><path d="M101.542 166.985c8 .5 21 1.333 28 2 2.5.238 6.4 3.9 10 7.5 4.5 4.5 10 10 11.5 12 2.194 2.924 2.194 6.251 0 9.175-1.5 2-6.999 7.5-11.499 12-3.6 3.6-7.501 7.262-10.001 7.5-7 .667-20 1.5-28 2-12.405.776-14-15.175-14-26.175s1.67-26.771 14-26z" fill="url(#an)"/><path d="M101.542 166.985c8 .5 21 1.333 28 2 2.5.238 6.4 3.9 10 7.5 4.5 4.5 10 10 11.5 12 2.194 2.924 2.194 6.251 0 9.175-1.5 2-6.999 7.5-11.499 12-3.6 3.6-7.501 7.262-10.001 7.5-7 .667-20 1.5-28 2-12.405.776-14-15.175-14-26.175s1.67-26.771 14-26z" stroke="#72767E" stroke-width="2"/></g><path d="M104.077 170.98c6.877.422 18.052 1.124 24.07 1.685 2.149.201 5.501 3.286 8.596 6.318 3.868 3.791 8.596 8.425 9.885 10.11 1.886 2.463 1.886 5.266 0 7.729-1.289 1.685-6.017 6.319-9.885 10.109-3.095 3.033-6.447 6.118-8.596 6.319-6.018.561-17.193 1.263-24.07 1.685-10.664.653-12.034-12.785-12.034-22.052 0-9.266 1.435-22.552 12.034-21.903z" fill="url(#ao)"/><path d="M111.042 184.957v15.5l-7.5-8 7.5-7.5z" fill="#AAAEB7"/><g filter="url(#ap)"><rect x="214" y="82.673" width="20.432" height="40.117" rx="10.216" transform="rotate(-10.357 214 82.673)" fill="#E8ECF4"/><rect x="215.163" y="83.477" width="18.432" height="38.117" rx="9.216" transform="rotate(-10.357 215.163 83.477)" stroke="#72767E" stroke-width="2"/></g><g opacity=".8" fill="#72767E"><path d="M223.467 64v9.9h1.066V64h-1.066zM220.267 75 216 68.4l.888-.61 4.266 6.6-.887.61zM227.733 75 232 68.4l-.888-.61-4.266 6.6.887.61z"/></g><g filter="url(#aq)"><circle cx="688.5" cy="130.5" r="28.5" fill="#D6DAE2"/><circle cx="688.5" cy="130.5" r="27.5" stroke="#72767E" stroke-width="2"/></g><circle cx="688.5" cy="130.5" r="24.5" fill="url(#ar)"/><path d="M688.5 113 673 140h31.5l-16-27z" stroke="#AAAEB7" stroke-width="3"/><g filter="url(#as)" transform="rotate(-90 626 193)"><circle cx="626" cy="193" r="28.5" fill="#D6DAE2"/><circle cx="626" cy="193" r="27.5" stroke="#72767E" stroke-width="2"/></g><circle cx="626" cy="193" transform="rotate(-90 626 193)" fill="url(#at)" r="24"/><path stroke="#AAAEB7" stroke-width="3" d="M612.5 179.5h27v27h-27z"/><g filter="url(#au)"><circle cx="688.5" cy="255.5" r="28.5" fill="#D6DAE2"/><circle cx="688.5" cy="255.5" r="27.5" stroke="#72767E" stroke-width="2"/></g><circle cx="688.5" cy="255.5" r="24.5" fill="url(#av)"/><path d="m690.182 255.621 12.5-12.5-2.121-2.121-12.5 12.5-12.5-12.5-2.122 2.121 12.5 12.5L673 268.561l2.121 2.121 12.94-12.939L701 270.682l2.121-2.121-12.939-12.94z" fill="#AAAEB7"/><g filter="url(#aw)" transform="rotate(-90 751 193)"><circle cx="751" cy="193" r="28.5" fill="#D6DAE2"/><circle cx="751" cy="193" r="27.5" stroke="#72767E" stroke-width="2"/></g><circle cx="751" cy="193" transform="rotate(-90 751 193)" fill="url(#ax)" r="24.5"/><circle cx="751" cy="193" r="16.5" transform="rotate(-90 751 193)" stroke="#AAAEB7" stroke-width="3"/><g filter="url(#ay)"><rect width="20.432" height="40.117" rx="10.216" transform="scale(-1 1) rotate(-10.358 137.93 3551.697)" fill="#E8ECF4"/><rect x="-1.163" y=".804" width="18.432" height="38.117" rx="9.216" transform="scale(-1 1) rotate(-10.358 137.93 3539.66)" stroke="#72767E" stroke-width="2"/></g><g opacity=".8" fill="#72767E"><path d="M632 67h-12v-1h12v1zM632 71h-12v-1h12v1zM620 75h12v-1h-12v1z"/></g><defs><linearGradient id="i" x1="130" y1="587" x2="130" y2="401" gradientUnits="userSpaceOnUse"><stop stop-color="#BBBDC8"/><stop offset="1" stop-color="#898A91"/></linearGradient><linearGradient id="ax" x1="776" y1="196" x2="719.5" y2="196" gradientUnits="userSpaceOnUse"><stop stop-color="#F7F9FF"/><stop offset="1" stop-color="#E8ECF4"/></linearGradient><linearGradient id="av" x1="688.5" y1="231" x2="688.5" y2="280" gradientUnits="userSpaceOnUse"><stop stop-color="#F7F9FF"/><stop offset="1" stop-color="#E8ECF4"/></linearGradient><linearGradient id="at" x1="650" y1="189.5" x2="597.5" y2="189.5" gradientUnits="userSpaceOnUse"><stop stop-color="#F7F9FF"/><stop offset="1" stop-color="#E8ECF4"/></linearGradient><linearGradient id="ar" x1="688.5" y1="106" x2="688.5" y2="155" gradientUnits="userSpaceOnUse"><stop stop-color="#F7F9FF"/><stop offset="1" stop-color="#E8ECF4"/></linearGradient><linearGradient id="ao" x1="92.043" y1="192.957" x2="148.042" y2="192.957" gradientUnits="userSpaceOnUse"><stop stop-color="#F7F9FF"/><stop offset="1" stop-color="#E8ECF4"/></linearGradient><linearGradient id="an" x1="87.543" y1="193.073" x2="152.688" y2="193.073" gradientUnits="userSpaceOnUse"><stop stop-color="#AAAEB7"/><stop offset="1" stop-color="#8F939A"/></linearGradient><linearGradient id="al" x1="161" y1="262.145" x2="161" y2="206.145" gradientUnits="userSpaceOnUse"><stop stop-color="#F7F9FF"/><stop offset="1" stop-color="#E8ECF4"/></linearGradient><linearGradient id="ak" x1="161.115" y1="266.645" x2="161.115" y2="201.5" gradientUnits="userSpaceOnUse"><stop stop-color="#AAAEB7"/><stop offset="1" stop-color="#8F939A"/></linearGradient><linearGradient id="ai" x1="230.187" y1="192.957" x2="174.187" y2="192.957" gradientUnits="userSpaceOnUse"><stop stop-color="#F7F9FF"/><stop offset="1" stop-color="#E8ECF4"/></linearGradient><linearGradient id="ah" x1="234.687" y1="193.073" x2="169.542" y2="193.073" gradientUnits="userSpaceOnUse"><stop stop-color="#AAAEB7"/><stop offset="1" stop-color="#8F939A"/></linearGradient><linearGradient id="af" x1="161" y1="124" x2="161" y2="180" gradientUnits="userSpaceOnUse"><stop stop-color="#F7F9FF"/><stop offset="1" stop-color="#E8ECF4"/></linearGradient><linearGradient id="ae" x1="161.115" y1="119.5" x2="161.115" y2="184.645" gradientUnits="userSpaceOnUse"><stop stop-color="#AAAEB7"/><stop offset="1" stop-color="#8F939A"/></linearGradient><linearGradient id="ac" x1="425" y1="349" x2="425" y2="361.5" gradientUnits="userSpaceOnUse"><stop stop-color="#51545F"/><stop offset="1" stop-color="#51545F" stop-opacity="0"/></linearGradient><linearGradient id="Z" x1="425" y1="274" x2="425" y2="334" gradientUnits="userSpaceOnUse"><stop stop-color="#33353C"/><stop offset="1" stop-color="#3C3F47"/></linearGradient><linearGradient id="Y" x1="425" y1="274" x2="425" y2="334" gradientUnits="userSpaceOnUse"><stop stop-color="#33353C"/><stop offset="1" stop-color="#3C3F47"/></linearGradient><linearGradient id="X" x1="425" y1="274" x2="425" y2="334" gradientUnits="userSpaceOnUse"><stop stop-color="#33353C"/><stop offset="1" stop-color="#3C3F47"/></linearGradient><linearGradient id="S" x1="426" y1="275" x2="426" y2="-15.5" gradientUnits="userSpaceOnUse"><stop stop-color="#DCE0E9"/><stop offset="1" stop-color="#F0F2F8"/><stop offset="1" stop-color="#fff"/></linearGradient><linearGradient id="N" x1="425.573" y1="42.711" x2="425.573" y2="233" gradientUnits="userSpaceOnUse"><stop stop-color="#2A6AFD"/><stop offset=".694" stop-color="#2A6AFD"/><stop offset="1" stop-color="#424246"/></linearGradient><linearGradient id="L" x1="425" y1="610" x2="424.624" y2="32" gradientUnits="userSpaceOnUse"><stop stop-color="#DCE0E9"/><stop offset="1" stop-color="#F0F3F9"/></linearGradient><linearGradient id="K" x1="425" y1="610" x2="424.624" y2="32" gradientUnits="userSpaceOnUse"><stop stop-color="#DCE0E9"/><stop offset="1" stop-color="#F0F3F9"/></linearGradient><linearGradient id="H" x1="44" y1="0" x2="17" y2="61" gradientUnits="userSpaceOnUse"><stop stop-color="#515559"/><stop offset="1" stop-color="#27292F"/></linearGradient><linearGradient id="C" x1="65" y1="0" x2="65" y2="130" gradientUnits="userSpaceOnUse"><stop stop-color="#3A3C42"/><stop offset="1" stop-color="#3B3F45"/></linearGradient><linearGradient id="A" x1="-58" y1="55" x2="105.5" y2="197.5" gradientUnits="userSpaceOnUse"><stop offset=".24" stop-color="#fff" stop-opacity="0"/><stop offset=".473" stop-color="#fff" stop-opacity=".15"/><stop offset=".729" stop-color="#fff" stop-opacity="0"/></linearGradient><linearGradient id="z" x1="148.5" y1="41.5" x2="-5" y2="111" gradientUnits="userSpaceOnUse"><stop stop-color="#33353A"/><stop offset="1" stop-color="#1A1C1F"/></linearGradient><linearGradient id="x" x1="44" y1="0" x2="17" y2="61" gradientUnits="userSpaceOnUse"><stop stop-color="#515559"/><stop offset="1" stop-color="#27292F"/></linearGradient><linearGradient id="s" x1="65" y1="0" x2="65" y2="130" gradientUnits="userSpaceOnUse"><stop stop-color="#3A3C42"/><stop offset="1" stop-color="#3B3F45"/></linearGradient><linearGradient id="q" x1="-58" y1="55" x2="105.5" y2="197.5" gradientUnits="userSpaceOnUse"><stop offset=".24" stop-color="#fff" stop-opacity="0"/><stop offset=".473" stop-color="#fff" stop-opacity=".15"/><stop offset=".729" stop-color="#fff" stop-opacity="0"/></linearGradient><linearGradient id="p" x1="148.5" y1="41.5" x2="-5" y2="111" gradientUnits="userSpaceOnUse"><stop stop-color="#33353A"/><stop offset="1" stop-color="#1A1C1F"/></linearGradient><linearGradient id="n" x1="65" y1="0" x2="65" y2="130" gradientUnits="userSpaceOnUse"><stop stop-color="#494C55"/><stop offset="1" stop-color="#494C55" stop-opacity="0"/></linearGradient><linearGradient id="m" x1="81.5" y1="0" x2="81.5" y2="163" gradientUnits="userSpaceOnUse"><stop stop-color="#444750"/><stop offset="1" stop-color="#444750" stop-opacity="0"/></linearGradient><linearGradient id="l" x1="425" y1="217" x2="425" y2="599" gradientUnits="userSpaceOnUse"><stop stop-color="#34393D"/><stop offset="1" stop-color="#0A0B0C"/></linearGradient><linearGradient id="a" x1="105" y1="69.5" x2="221" y2="44.5" gradientUnits="userSpaceOnUse"><stop stop-color="#35353A"/><stop offset="1" stop-color="#47474E"/></linearGradient><linearGradient id="b" x1="221" y1="31" x2="105" y2="53" gradientUnits="userSpaceOnUse"><stop offset=".182" stop-color="#fff" stop-opacity="0"/><stop offset=".297" stop-color="#fff" stop-opacity=".27"/><stop offset=".505" stop-color="#fff" stop-opacity="0"/></linearGradient><linearGradient id="d" x1="195.5" y1="31" x2="120.5" y2="59" gradientUnits="userSpaceOnUse"><stop stop-color="#5F5E63"/><stop offset=".704" stop-color="#6E6D74"/></linearGradient><linearGradient id="e" x1="745.5" y1="69.5" x2="629.5" y2="44.5" gradientUnits="userSpaceOnUse"><stop stop-color="#35353A"/><stop offset="1" stop-color="#47474E"/></linearGradient><linearGradient id="f" x1="629.5" y1="31" x2="745.5" y2="53" gradientUnits="userSpaceOnUse"><stop offset=".557" stop-color="#fff" stop-opacity="0"/><stop offset=".781" stop-color="#fff" stop-opacity=".27"/><stop offset=".911" stop-color="#fff" stop-opacity="0"/></linearGradient><linearGradient id="h" x1="655" y1="31" x2="730" y2="59" gradientUnits="userSpaceOnUse"><stop stop-color="#5F5E63"/><stop offset=".704" stop-color="#6E6D74"/></linearGradient><linearGradient id="j" x1="130" y1="587" x2="130" y2="401" gradientUnits="userSpaceOnUse"><stop stop-color="#BBBDC8"/><stop offset="1" stop-color="#898A91"/></linearGradient><filter id="R" x="257" y="38" width="337.018" height="186.5" filterUnits="userSpaceOnUse" color-interpolation-filters="sRGB"><feFlood flood-opacity="0" result="BackgroundImageFix"/><feBlend in="SourceGraphic" in2="BackgroundImageFix" result="shape"/><feColorMatrix in="SourceAlpha" values="0 0 0 0 0 0 0 0 0 0 0 0 0 0 0 0 0 0 127 0" result="hardAlpha"/><feOffset dy="4"/><feGaussianBlur stdDeviation="9"/><feComposite in2="hardAlpha" operator="arithmetic" k2="-1" k3="1"/><feColorMatrix values="0 0 0 0 1 0 0 0 0 1 0 0 0 0 1 0 0 0 0.55 0"/><feBlend in2="shape" result="effect1_innerShadow_4_110"/></filter><filter id="g" x="633.837" y="31.37" width="109.771" height="31.143" filterUnits="userSpaceOnUse" color-interpolation-filters="sRGB"><feFlood flood-opacity="0" result="BackgroundImageFix"/><feBlend in="SourceGraphic" in2="BackgroundImageFix" result="shape"/><feColorMatrix in="SourceAlpha" values="0 0 0 0 0 0 0 0 0 0 0 0 0 0 0 0 0 0 127 0" result="hardAlpha"/><feOffset dy="4"/><feGaussianBlur stdDeviation="2"/><feComposite in2="hardAlpha" operator="arithmetic" k2="-1" k3="1"/><feColorMatrix values="0 0 0 0 0 0 0 0 0 0 0 0 0 0 0 0 0 0 0.1 0"/><feBlend in2="shape" result="effect1_innerShadow_4_110"/></filter><filter id="aw" x="721.5" y="164.5" width="59" height="60" filterUnits="userSpaceOnUse" color-interpolation-filters="sRGB"><feFlood flood-opacity="0" result="BackgroundImageFix"/><feColorMatrix in="SourceAlpha" values="0 0 0 0 0 0 0 0 0 0 0 0 0 0 0 0 0 0 127 0" result="hardAlpha"/><feOffset dy="2"/><feGaussianBlur stdDeviation=".5"/><feColorMatrix values="0 0 0 0 1 0 0 0 0 1 0 0 0 0 1 0 0 0 0.3 0"/><feBlend in2="BackgroundImageFix" result="effect1_dropShadow_4_110"/><feBlend in="SourceGraphic" in2="effect1_dropShadow_4_110" result="shape"/></filter><filter id="au" x="659" y="227" width="59" height="60" filterUnits="userSpaceOnUse" color-interpolation-filters="sRGB"><feFlood flood-opacity="0" result="BackgroundImageFix"/><feColorMatrix in="SourceAlpha" values="0 0 0 0 0 0 0 0 0 0 0 0 0 0 0 0 0 0 127 0" result="hardAlpha"/><feOffset dy="2"/><feGaussianBlur stdDeviation=".5"/><feColorMatrix values="0 0 0 0 1 0 0 0 0 1 0 0 0 0 1 0 0 0 0.3 0"/><feBlend in2="BackgroundImageFix" result="effect1_dropShadow_4_110"/><feBlend in="SourceGraphic" in2="effect1_dropShadow_4_110" result="shape"/></filter><filter id="as" x="596.5" y="164.5" width="59" height="60" filterUnits="userSpaceOnUse" color-interpolation-filters="sRGB"><feFlood flood-opacity="0" result="BackgroundImageFix"/><feColorMatrix in="SourceAlpha" values="0 0 0 0 0 0 0 0 0 0 0 0 0 0 0 0 0 0 127 0" result="hardAlpha"/><feOffset dy="2"/><feGaussianBlur stdDeviation=".5"/><feColorMatrix values="0 0 0 0 1 0 0 0 0 1 0 0 0 0 1 0 0 0 0.3 0"/><feBlend in2="BackgroundImageFix" result="effect1_dropShadow_4_110"/><feBlend in="SourceGraphic" in2="effect1_dropShadow_4_110" result="shape"/></filter><filter id="aq" x="659" y="102" width="59" height="60" filterUnits="userSpaceOnUse" color-interpolation-filters="sRGB"><feFlood flood-opacity="0" result="BackgroundImageFix"/><feColorMatrix in="SourceAlpha" values="0 0 0 0 0 0 0 0 0 0 0 0 0 0 0 0 0 0 127 0" result="hardAlpha"/><feOffset dy="2"/><feGaussianBlur stdDeviation=".5"/><feColorMatrix values="0 0 0 0 1 0 0 0 0 1 0 0 0 0 1 0 0 0 0.3 0"/><feBlend in2="BackgroundImageFix" result="effect1_dropShadow_4_110"/><feBlend in="SourceGraphic" in2="effect1_dropShadow_4_110" result="shape"/></filter><filter id="ap" x="214.668" y="80.668" width="25.975" height="42.8" filterUnits="userSpaceOnUse" color-interpolation-filters="sRGB"><feFlood flood-opacity="0" result="BackgroundImageFix"/><feColorMatrix in="SourceAlpha" values="0 0 0 0 0 0 0 0 0 0 0 0 0 0 0 0 0 0 127 0" result="hardAlpha"/><feOffset dy="2"/><feGaussianBlur stdDeviation=".5"/><feColorMatrix values="0 0 0 0 1 0 0 0 0 1 0 0 0 0 1 0 0 0 0.33 0"/><feBlend in2="BackgroundImageFix" result="effect1_dropShadow_4_110"/><feBlend in="SourceGraphic" in2="effect1_dropShadow_4_110" result="shape"/><feColorMatrix in="SourceAlpha" values="0 0 0 0 0 0 0 0 0 0 0 0 0 0 0 0 0 0 127 0" result="hardAlpha"/><feOffset dy="3"/><feGaussianBlur stdDeviation="1"/><feComposite in2="hardAlpha" operator="arithmetic" k2="-1" k3="1"/><feColorMatrix values="0 0 0 0 1 0 0 0 0 1 0 0 0 0 1 0 0 0 1 0"/><feBlend in2="shape" result="effect2_innerShadow_4_110"/></filter><filter id="k" x="60" y="31.831" width="730.472" height="559.301" filterUnits="userSpaceOnUse" color-interpolation-filters="sRGB"><feFlood flood-opacity="0" result="BackgroundImageFix"/><feBlend in="SourceGraphic" in2="BackgroundImageFix" result="shape"/><feColorMatrix in="SourceAlpha" values="0 0 0 0 0 0 0 0 0 0 0 0 0 0 0 0 0 0 127 0" result="hardAlpha"/><feOffset dy="-10"/><feGaussianBlur stdDeviation="22"/><feComposite in2="hardAlpha" operator="arithmetic" k2="-1" k3="1"/><feColorMatrix values="0 0 0 0 1 0 0 0 0 1 0 0 0 0 1 0 0 0 0.3 0"/><feBlend in2="shape" result="effect1_innerShadow_4_110"/></filter><filter id="am" x="85.543" y="165.958" width="69.145" height="57.23" filterUnits="userSpaceOnUse" color-interpolation-filters="sRGB"><feFlood flood-opacity="0" result="BackgroundImageFix"/><feColorMatrix in="SourceAlpha" values="0 0 0 0 0 0 0 0 0 0 0 0 0 0 0 0 0 0 127 0" result="hardAlpha"/><feOffset dy="2"/><feGaussianBlur stdDeviation=".5"/><feColorMatrix values="0 0 0 0 1 0 0 0 0 1 0 0 0 0 1 0 0 0 0.3 0"/><feBlend in2="BackgroundImageFix" result="effect1_dropShadow_4_110"/><feBlend in="SourceGraphic" in2="effect1_dropShadow_4_110" result="shape"/></filter><filter id="aj" x="133" y="200.5" width="56.23" height="70.145" filterUnits="userSpaceOnUse" color-interpolation-filters="sRGB"><feFlood flood-opacity="0" result="BackgroundImageFix"/><feColorMatrix in="SourceAlpha" values="0 0 0 0 0 0 0 0 0 0 0 0 0 0 0 0 0 0 127 0" result="hardAlpha"/><feOffset dy="2"/><feGaussianBlur stdDeviation=".5"/><feColorMatrix values="0 0 0 0 1 0 0 0 0 1 0 0 0 0 1 0 0 0 0.3 0"/><feBlend in2="BackgroundImageFix" result="effect1_dropShadow_4_110"/><feBlend in="SourceGraphic" in2="effect1_dropShadow_4_110" result="shape"/></filter><filter id="ag" x="167.542" y="165.958" width="69.145" height="57.23" filterUnits="userSpaceOnUse" color-interpolation-filters="sRGB"><feFlood flood-opacity="0" result="BackgroundImageFix"/><feColorMatrix in="SourceAlpha" values="0 0 0 0 0 0 0 0 0 0 0 0 0 0 0 0 0 0 127 0" result="hardAlpha"/><feOffset dy="2"/><feGaussianBlur stdDeviation=".5"/><feColorMatrix values="0 0 0 0 1 0 0 0 0 1 0 0 0 0 1 0 0 0 0.3 0"/><feBlend in2="BackgroundImageFix" result="effect1_dropShadow_4_110"/><feBlend in="SourceGraphic" in2="effect1_dropShadow_4_110" result="shape"/></filter><filter id="ad" x="133" y="118.5" width="56.23" height="70.145" filterUnits="userSpaceOnUse" color-interpolation-filters="sRGB"><feFlood flood-opacity="0" result="BackgroundImageFix"/><feColorMatrix in="SourceAlpha" values="0 0 0 0 0 0 0 0 0 0 0 0 0 0 0 0 0 0 127 0" result="hardAlpha"/><feOffset dy="2"/><feGaussianBlur stdDeviation=".5"/><feColorMatrix values="0 0 0 0 1 0 0 0 0 1 0 0 0 0 1 0 0 0 0.3 0"/><feBlend in2="BackgroundImageFix" result="effect1_dropShadow_4_110"/><feBlend in="SourceGraphic" in2="effect1_dropShadow_4_110" result="shape"/></filter><filter id="o" x="164" y="195" width="251" height="251" filterUnits="userSpaceOnUse" color-interpolation-filters="sRGB"><feFlood flood-opacity="0" result="BackgroundImageFix"/><feColorMatrix in="SourceAlpha" values="0 0 0 0 0 0 0 0 0 0 0 0 0 0 0 0 0 0 127 0" result="hardAlpha"/><feOffset dy="4"/><feGaussianBlur stdDeviation="22"/><feColorMatrix values="0 0 0 0 0 0 0 0 0 0 0 0 0 0 0 0 0 0 0.12 0"/><feBlend in2="BackgroundImageFix" result="effect1_dropShadow_4_110"/><feBlend in="SourceGraphic" in2="effect1_dropShadow_4_110" result="shape"/><feColorMatrix in="SourceAlpha" values="0 0 0 0 0 0 0 0 0 0 0 0 0 0 0 0 0 0 127 0" result="hardAlpha"/><feOffset dx="4" dy="5"/><feGaussianBlur stdDeviation="3"/><feComposite in2="hardAlpha" operator="arithmetic" k2="-1" k3="1"/><feColorMatrix values="0 0 0 0 1 0 0 0 0 1 0 0 0 0 1 0 0 0 0.09 0"/><feBlend in2="shape" result="effect2_innerShadow_4_110"/></filter><filter id="ab" x="402" y="349" width="46" height="13" filterUnits="userSpaceOnUse" color-interpolation-filters="sRGB"><feFlood flood-opacity="0" result="BackgroundImageFix"/><feColorMatrix in="SourceAlpha" values="0 0 0 0 0 0 0 0 0 0 0 0 0 0 0 0 0 0 127 0" result="hardAlpha"/><feOffset dy="1"/><feGaussianBlur stdDeviation=".5"/><feColorMatrix values="0 0 0 0 1 0 0 0 0 1 0 0 0 0 1 0 0 0 0.03 0"/><feBlend in2="BackgroundImageFix" result="effect1_dropShadow_4_110"/><feBlend in="SourceGraphic" in2="effect1_dropShadow_4_110" result="shape"/><feColorMatrix in="SourceAlpha" values="0 0 0 0 0 0 0 0 0 0 0 0 0 0 0 0 0 0 127 0" result="hardAlpha"/><feOffset dy="2"/><feGaussianBlur stdDeviation="1"/><feComposite in2="hardAlpha" operator="arithmetic" k2="-1" k3="1"/><feColorMatrix values="0 0 0 0 1 0 0 0 0 1 0 0 0 0 1 0 0 0 0.44 0"/><feBlend in2="shape" result="effect2_innerShadow_4_110"/></filter><filter id="aa" x="391" y="242" width="69" height="24" filterUnits="userSpaceOnUse" color-interpolation-filters="sRGB"><feFlood flood-opacity="0" result="BackgroundImageFix"/><feBlend in="SourceGraphic" in2="BackgroundImageFix" result="shape"/><feColorMatrix in="SourceAlpha" values="0 0 0 0 0 0 0 0 0 0 0 0 0 0 0 0 0 0 127 0" result="hardAlpha"/><feOffset dy="2"/><feGaussianBlur stdDeviation="1.5"/><feComposite in2="hardAlpha" operator="arithmetic" k2="-1" k3="1"/><feColorMatrix values="0 0 0 0 0 0 0 0 0 0 0 0 0 0 0 0 0 0 0.25 0"/><feBlend in2="shape" result="effect1_innerShadow_4_110"/></filter><filter id="W" x="398.159" y="281" width="54.081" height="41.73" filterUnits="userSpaceOnUse" color-interpolation-filters="sRGB"><feFlood flood-opacity="0" result="BackgroundImageFix"/><feBlend in="SourceGraphic" in2="BackgroundImageFix" result="shape"/><feColorMatrix in="SourceAlpha" values="0 0 0 0 0 0 0 0 0 0 0 0 0 0 0 0 0 0 127 0" result="hardAlpha"/><feOffset dy="1"/><feComposite in2="hardAlpha" operator="arithmetic" k2="-1" k3="1"/><feColorMatrix values="0 0 0 0 1 0 0 0 0 1 0 0 0 0 1 0 0 0 0.16 0"/><feBlend in2="shape" result="effect1_innerShadow_4_110"/></filter><filter id="V" x="394" y="277" width="61.739" height="51" filterUnits="userSpaceOnUse" color-interpolation-filters="sRGB"><feFlood flood-opacity="0" result="BackgroundImageFix"/><feBlend in="SourceGraphic" in2="BackgroundImageFix" result="shape"/><feColorMatrix in="SourceAlpha" values="0 0 0 0 0 0 0 0 0 0 0 0 0 0 0 0 0 0 127 0" result="hardAlpha"/><feOffset dy="2"/><feGaussianBlur stdDeviation="1.5"/><feComposite in2="hardAlpha" operator="arithmetic" k2="-1" k3="1"/><feColorMatrix values="0 0 0 0 0 0 0 0 0 0 0 0 0 0 0 0 0 0 0.25 0"/><feBlend in2="shape" result="effect1_innerShadow_4_110"/></filter><filter id="r" x="228" y="245" width="130" height="135" filterUnits="userSpaceOnUse" color-interpolation-filters="sRGB"><feFlood flood-opacity="0" result="BackgroundImageFix"/><feBlend in="SourceGraphic" in2="BackgroundImageFix" result="shape"/><feColorMatrix in="SourceAlpha" values="0 0 0 0 0 0 0 0 0 0 0 0 0 0 0 0 0 0 127 0" result="hardAlpha"/><feOffset dy="5"/><feGaussianBlur stdDeviation="3"/><feComposite in2="hardAlpha" operator="arithmetic" k2="-1" k3="1"/><feColorMatrix values="0 0 0 0 1 0 0 0 0 1 0 0 0 0 1 0 0 0 0.09 0"/><feBlend in2="shape" result="effect1_innerShadow_4_110"/></filter><filter id="t" x="237" y="254" width="111" height="111" filterUnits="userSpaceOnUse" color-interpolation-filters="sRGB"><feFlood flood-opacity="0" result="BackgroundImageFix"/><feBlend in="SourceGraphic" in2="BackgroundImageFix" result="shape"/><feColorMatrix in="SourceAlpha" values="0 0 0 0 0 0 0 0 0 0 0 0 0 0 0 0 0 0 127 0" result="hardAlpha"/><feOffset/><feGaussianBlur stdDeviation="2.5"/><feComposite in2="hardAlpha" operator="arithmetic" k2="-1" k3="1"/><feColorMatrix values="0 0 0 0 0 0 0 0 0 0 0 0 0 0 0 0 0 0 0.55 0"/><feBlend in2="shape" result="effect1_innerShadow_4_110"/></filter><filter id="ay" x="609.668" y="80.668" width="25.975" height="42.8" filterUnits="userSpaceOnUse" color-interpolation-filters="sRGB"><feFlood flood-opacity="0" result="BackgroundImageFix"/><feColorMatrix in="SourceAlpha" values="0 0 0 0 0 0 0 0 0 0 0 0 0 0 0 0 0 0 127 0" result="hardAlpha"/><feOffset dy="2"/><feGaussianBlur stdDeviation=".5"/><feColorMatrix values="0 0 0 0 1 0 0 0 0 1 0 0 0 0 1 0 0 0 0.33 0"/><feBlend in2="BackgroundImageFix" result="effect1_dropShadow_4_110"/><feBlend in="SourceGraphic" in2="effect1_dropShadow_4_110" result="shape"/><feColorMatrix in="SourceAlpha" values="0 0 0 0 0 0 0 0 0 0 0 0 0 0 0 0 0 0 127 0" result="hardAlpha"/><feOffset dy="3"/><feGaussianBlur stdDeviation="1"/><feComposite in2="hardAlpha" operator="arithmetic" k2="-1" k3="1"/><feColorMatrix values="0 0 0 0 1 0 0 0 0 1 0 0 0 0 1 0 0 0 1 0"/><feBlend in2="shape" result="effect2_innerShadow_4_110"/></filter><filter id="u" x="243" y="260" width="99" height="104" filterUnits="userSpaceOnUse" color-interpolation-filters="sRGB"><feFlood flood-opacity="0" result="BackgroundImageFix"/><feBlend in="SourceGraphic" in2="BackgroundImageFix" result="shape"/><feColorMatrix in="SourceAlpha" values="0 0 0 0 0 0 0 0 0 0 0 0 0 0 0 0 0 0 127 0" result="hardAlpha"/><feOffset/><feGaussianBlur stdDeviation="8"/><feComposite in2="hardAlpha" operator="arithmetic" k2="-1" k3="1"/><feColorMatrix values="0 0 0 0 0.129412 0 0 0 0 0.141176 0 0 0 0 0.172549 0 0 0 0.35 0"/><feBlend in2="shape" result="effect1_innerShadow_4_110"/><feColorMatrix in="SourceAlpha" values="0 0 0 0 0 0 0 0 0 0 0 0 0 0 0 0 0 0 127 0" result="hardAlpha"/><feOffset dy="5"/><feGaussianBlur stdDeviation="5.5"/><feComposite in2="hardAlpha" operator="arithmetic" k2="-1" k3="1"/><feColorMatrix values="0 0 0 0 1 0 0 0 0 1 0 0 0 0 1 0 0 0 0.2 0"/><feBlend in2="effect1_innerShadow_4_110" result="effect2_innerShadow_4_110"/></filter><filter id="w" x="242" y="252" width="101" height="101" filterUnits="userSpaceOnUse" color-interpolation-filters="sRGB"><feFlood flood-opacity="0" result="BackgroundImageFix"/><feColorMatrix in="SourceAlpha" values="0 0 0 0 0 0 0 0 0 0 0 0 0 0 0 0 0 0 127 0" result="hardAlpha"/><feOffset dy="4"/><feGaussianBlur stdDeviation="4"/><feColorMatrix values="0 0 0 0 1 0 0 0 0 1 0 0 0 0 1 0 0 0 0.13 0"/><feBlend in2="BackgroundImageFix" result="effect1_dropShadow_4_110"/><feColorMatrix in="SourceAlpha" values="0 0 0 0 0 0 0 0 0 0 0 0 0 0 0 0 0 0 127 0" result="hardAlpha"/><feOffset dy="-7"/><feGaussianBlur stdDeviation="10"/><feColorMatrix values="0 0 0 0 0 0 0 0 0 0 0 0 0 0 0 0 0 0 0.5 0"/><feBlend in2="effect1_dropShadow_4_110" result="effect2_dropShadow_4_110"/><feBlend in="SourceGraphic" in2="effect2_dropShadow_4_110" result="shape"/><feColorMatrix in="SourceAlpha" values="0 0 0 0 0 0 0 0 0 0 0 0 0 0 0 0 0 0 127 0" result="hardAlpha"/><feOffset/><feGaussianBlur stdDeviation="6.5"/><feComposite in2="hardAlpha" operator="arithmetic" k2="-1" k3="1"/><feColorMatrix values="0 0 0 0 0 0 0 0 0 0 0 0 0 0 0 0 0 0 0.25 0"/><feBlend in2="shape" result="effect3_innerShadow_4_110"/></filter><filter id="Q" x="219" y="23" width="413" height="222" filterUnits="userSpaceOnUse" color-interpolation-filters="sRGB"><feFlood flood-opacity="0" result="BackgroundImageFix"/><feColorMatrix in="SourceAlpha" values="0 0 0 0 0 0 0 0 0 0 0 0 0 0 0 0 0 0 127 0" result="hardAlpha"/><feOffset/><feGaussianBlur stdDeviation="15"/><feColorMatrix values="0 0 0 0 0.2625 0 0 0 0 0.486197 0 0 0 0 1 0 0 0 0.3 0"/><feBlend in2="BackgroundImageFix" result="effect1_dropShadow_4_110"/><feBlend in="SourceGraphic" in2="effect1_dropShadow_4_110" result="shape"/></filter><filter id="M" x="245" y="39.711" width="361.146" height="198.289" filterUnits="userSpaceOnUse" color-interpolation-filters="sRGB"><feFlood flood-opacity="0" result="BackgroundImageFix"/><feColorMatrix in="SourceAlpha" values="0 0 0 0 0 0 0 0 0 0 0 0 0 0 0 0 0 0 127 0" result="hardAlpha"/><feOffset dy="1"/><feGaussianBlur stdDeviation="2"/><feColorMatrix values="0 0 0 0 0 0 0 0 0 0 0 0 0 0 0 0 0 0 0.05 0"/><feBlend in2="BackgroundImageFix" result="effect1_dropShadow_4_110"/><feBlend in="SourceGraphic" in2="effect1_dropShadow_4_110" result="shape"/><feColorMatrix in="SourceAlpha" values="0 0 0 0 0 0 0 0 0 0 0 0 0 0 0 0 0 0 127 0" result="hardAlpha"/><feOffset dy="-2"/><feGaussianBlur stdDeviation="2"/><feComposite in2="hardAlpha" operator="arithmetic" k2="-1" k3="1"/><feColorMatrix values="0 0 0 0 1 0 0 0 0 1 0 0 0 0 1 0 0 0 0.08 0"/><feBlend in2="shape" result="effect2_innerShadow_4_110"/></filter><filter id="J" x="1" y="21.661" width="848.681" height="578.345" filterUnits="userSpaceOnUse" color-interpolation-filters="sRGB"><feFlood flood-opacity="0" result="BackgroundImageFix"/><feBlend in="SourceGraphic" in2="BackgroundImageFix" result="shape"/><feColorMatrix in="SourceAlpha" values="0 0 0 0 0 0 0 0 0 0 0 0 0 0 0 0 0 0 127 0" result="hardAlpha"/><feOffset dy="-30"/><feGaussianBlur stdDeviation="27.5"/><feComposite in2="hardAlpha" operator="arithmetic" k2="-1" k3="1"/><feColorMatrix values="0 0 0 0 0 0 0 0 0 0 0 0 0 0 0 0 0 0 0.11 0"/><feBlend in2="shape" result="effect1_innerShadow_4_110"/><feColorMatrix in="SourceAlpha" values="0 0 0 0 0 0 0 0 0 0 0 0 0 0 0 0 0 0 127 0" result="hardAlpha"/><feOffset dy="-5"/><feGaussianBlur stdDeviation="4"/><feComposite in2="hardAlpha" operator="arithmetic" k2="-1" k3="1"/><feColorMatrix values="0 0 0 0 0 0 0 0 0 0 0 0 0 0 0 0 0 0 0.1 0"/><feBlend in2="effect1_innerShadow_4_110" result="effect2_innerShadow_4_110"/><feColorMatrix in="SourceAlpha" values="0 0 0 0 0 0 0 0 0 0 0 0 0 0 0 0 0 0 127 0" result="hardAlpha"/><feOffset dy="14"/><feGaussianBlur stdDeviation="8.5"/><feComposite in2="hardAlpha" operator="arithmetic" k2="-1" k3="1"/><feColorMatrix values="0 0 0 0 1 0 0 0 0 1 0 0 0 0 1 0 0 0 0.3 0"/><feBlend in2="effect2_innerShadow_4_110" result="effect3_innerShadow_4_110"/></filter><filter id="I" x="0" y="40" width="849" height="556.003" filterUnits="userSpaceOnUse" color-interpolation-filters="sRGB"><feFlood flood-opacity="0" result="BackgroundImageFix"/><feColorMatrix in="SourceAlpha" values="0 0 0 0 0 0 0 0 0 0 0 0 0 0 0 0 0 0 127 0" result="hardAlpha"/><feOffset dy="4"/><feGaussianBlur stdDeviation="13.5"/><feColorMatrix values="0 0 0 0 0 0 0 0 0 0 0 0 0 0 0 0 0 0 0.22 0"/><feBlend in2="BackgroundImageFix" result="effect1_dropShadow_4_110"/><feColorMatrix in="SourceAlpha" values="0 0 0 0 0 0 0 0 0 0 0 0 0 0 0 0 0 0 127 0" result="hardAlpha"/><feOffset dy="4"/><feGaussianBlur stdDeviation="2"/><feColorMatrix values="0 0 0 0 0 0 0 0 0 0 0 0 0 0 0 0 0 0 0.22 0"/><feBlend in2="effect1_dropShadow_4_110" result="effect2_dropShadow_4_110"/><feBlend in="SourceGraphic" in2="effect2_dropShadow_4_110" result="shape"/></filter><filter id="G" x="512" y="252" width="101" height="101" filterUnits="userSpaceOnUse" color-interpolation-filters="sRGB"><feFlood flood-opacity="0" result="BackgroundImageFix"/><feColorMatrix in="SourceAlpha" values="0 0 0 0 0 0 0 0 0 0 0 0 0 0 0 0 0 0 127 0" result="hardAlpha"/><feOffset dy="4"/><feGaussianBlur stdDeviation="4"/><feColorMatrix values="0 0 0 0 1 0 0 0 0 1 0 0 0 0 1 0 0 0 0.13 0"/><feBlend in2="BackgroundImageFix" result="effect1_dropShadow_4_110"/><feColorMatrix in="SourceAlpha" values="0 0 0 0 0 0 0 0 0 0 0 0 0 0 0 0 0 0 127 0" result="hardAlpha"/><feOffset dy="-7"/><feGaussianBlur stdDeviation="10"/><feColorMatrix values="0 0 0 0 0 0 0 0 0 0 0 0 0 0 0 0 0 0 0.5 0"/><feBlend in2="effect1_dropShadow_4_110" result="effect2_dropShadow_4_110"/><feBlend in="SourceGraphic" in2="effect2_dropShadow_4_110" result="shape"/><feColorMatrix in="SourceAlpha" values="0 0 0 0 0 0 0 0 0 0 0 0 0 0 0 0 0 0 127 0" result="hardAlpha"/><feOffset/><feGaussianBlur stdDeviation="6.5"/><feComposite in2="hardAlpha" operator="arithmetic" k2="-1" k3="1"/><feColorMatrix values="0 0 0 0 0 0 0 0 0 0 0 0 0 0 0 0 0 0 0.25 0"/><feBlend in2="shape" result="effect3_innerShadow_4_110"/></filter><filter id="E" x="513" y="260" width="99" height="104" filterUnits="userSpaceOnUse" color-interpolation-filters="sRGB"><feFlood flood-opacity="0" result="BackgroundImageFix"/><feBlend in="SourceGraphic" in2="BackgroundImageFix" result="shape"/><feColorMatrix in="SourceAlpha" values="0 0 0 0 0 0 0 0 0 0 0 0 0 0 0 0 0 0 127 0" result="hardAlpha"/><feOffset/><feGaussianBlur stdDeviation="8"/><feComposite in2="hardAlpha" operator="arithmetic" k2="-1" k3="1"/><feColorMatrix values="0 0 0 0 0.129412 0 0 0 0 0.141176 0 0 0 0 0.172549 0 0 0 0.35 0"/><feBlend in2="shape" result="effect1_innerShadow_4_110"/><feColorMatrix in="SourceAlpha" values="0 0 0 0 0 0 0 0 0 0 0 0 0 0 0 0 0 0 127 0" result="hardAlpha"/><feOffset dy="5"/><feGaussianBlur stdDeviation="5.5"/><feComposite in2="hardAlpha" operator="arithmetic" k2="-1" k3="1"/><feColorMatrix values="0 0 0 0 1 0 0 0 0 1 0 0 0 0 1 0 0 0 0.2 0"/><feBlend in2="effect1_innerShadow_4_110" result="effect2_innerShadow_4_110"/></filter><filter id="D" x="507" y="254" width="111" height="111" filterUnits="userSpaceOnUse" color-interpolation-filters="sRGB"><feFlood flood-opacity="0" result="BackgroundImageFix"/><feBlend in="SourceGraphic" in2="BackgroundImageFix" result="shape"/><feColorMatrix in="SourceAlpha" values="0 0 0 0 0 0 0 0 0 0 0 0 0 0 0 0 0 0 127 0" result="hardAlpha"/><feOffset/><feGaussianBlur stdDeviation="2.5"/><feComposite in2="hardAlpha" operator="arithmetic" k2="-1" k3="1"/><feColorMatrix values="0 0 0 0 0 0 0 0 0 0 0 0 0 0 0 0 0 0 0.55 0"/><feBlend in2="shape" result="effect1_innerShadow_4_110"/></filter><filter id="B" x="498" y="245" width="130" height="135" filterUnits="userSpaceOnUse" color-interpolation-filters="sRGB"><feFlood flood-opacity="0" result="BackgroundImageFix"/><feBlend in="SourceGraphic" in2="BackgroundImageFix" result="shape"/><feColorMatrix in="SourceAlpha" values="0 0 0 0 0 0 0 0 0 0 0 0 0 0 0 0 0 0 127 0" result="hardAlpha"/><feOffset dy="5"/><feGaussianBlur stdDeviation="3"/><feComposite in2="hardAlpha" operator="arithmetic" k2="-1" k3="1"/><feColorMatrix values="0 0 0 0 1 0 0 0 0 1 0 0 0 0 1 0 0 0 0.09 0"/><feBlend in2="shape" result="effect1_innerShadow_4_110"/></filter><filter id="y" x="434" y="195" width="251" height="251" filterUnits="userSpaceOnUse" color-interpolation-filters="sRGB"><feFlood flood-opacity="0" result="BackgroundImageFix"/><feColorMatrix in="SourceAlpha" values="0 0 0 0 0 0 0 0 0 0 0 0 0 0 0 0 0 0 127 0" result="hardAlpha"/><feOffset dy="4"/><feGaussianBlur stdDeviation="22"/><feColorMatrix values="0 0 0 0 0 0 0 0 0 0 0 0 0 0 0 0 0 0 0.12 0"/><feBlend in2="BackgroundImageFix" result="effect1_dropShadow_4_110"/><feBlend in="SourceGraphic" in2="effect1_dropShadow_4_110" result="shape"/><feColorMatrix in="SourceAlpha" values="0 0 0 0 0 0 0 0 0 0 0 0 0 0 0 0 0 0 127 0" result="hardAlpha"/><feOffset dx="4" dy="5"/><feGaussianBlur stdDeviation="3"/><feComposite in2="hardAlpha" operator="arithmetic" k2="-1" k3="1"/><feColorMatrix values="0 0 0 0 1 0 0 0 0 1 0 0 0 0 1 0 0 0 0.09 0"/><feBlend in2="shape" result="effect2_innerShadow_4_110"/></filter><filter id="c" x="106.892" y="31.37" width="109.771" height="31.143" filterUnits="userSpaceOnUse" color-interpolation-filters="sRGB"><feFlood flood-opacity="0" result="BackgroundImageFix"/><feBlend in="SourceGraphic" in2="BackgroundImageFix" result="shape"/><feColorMatrix in="SourceAlpha" values="0 0 0 0 0 0 0 0 0 0 0 0 0 0 0 0 0 0 127 0" result="hardAlpha"/><feOffset dy="4"/><feGaussianBlur stdDeviation="2"/><feComposite in2="hardAlpha" operator="arithmetic" k2="-1" k3="1"/><feColorMatrix values="0 0 0 0 0 0 0 0 0 0 0 0 0 0 0 0 0 0 0.1 0"/><feBlend in2="shape" result="effect1_innerShadow_4_110"/></filter><radialGradient id="U" cx="0" cy="0" r="1" gradientUnits="userSpaceOnUse" gradientTransform="matrix(0 99.5339 -51.943 0 96.71 99.534)"><stop stop-color="#78A1FF"/><stop offset="1" stop-color="#3E78FF" stop-opacity="0"/></radialGradient><radialGradient id="T" cx="0" cy="0" r="1" gradientUnits="userSpaceOnUse" gradientTransform="rotate(90 70 192.419) scale(99.5339 51.943)"><stop stop-color="#78A1FF"/><stop offset="1" stop-color="#3E78FF" stop-opacity="0"/></radialGradient><radialGradient id="P" cx="0" cy="0" r="1" gradientUnits="userSpaceOnUse" gradientTransform="matrix(-36 0 0 -13.5475 426 233)"><stop stop-color="#fff" stop-opacity=".22"/><stop offset="1" stop-color="#fff" stop-opacity="0"/></radialGradient><radialGradient id="O" cx="0" cy="0" r="1" gradientUnits="userSpaceOnUse" gradientTransform="matrix(-71 0 0 -19.1715 426 233)"><stop stop-color="#fff" stop-opacity=".28"/><stop offset="1" stop-color="#fff" stop-opacity="0"/></radialGradient><radialGradient id="F" cx="0" cy="0" r="1" gradientUnits="userSpaceOnUse" gradientTransform="rotate(90 0 49.5) scale(49.5)"><stop offset=".625" stop-color="#4D5158"/><stop offset="1" stop-color="#464A52"/></radialGradient><radialGradient id="v" cx="0" cy="0" r="1" gradientUnits="userSpaceOnUse" gradientTransform="rotate(90 0 49.5) scale(49.5)"><stop offset=".625" stop-color="#4D5158"/><stop offset="1" stop-color="#464A52"/></radialGradient></defs></svg>